<svg xmlns="http://www.w3.org/2000/svg" viewBox="0 0 200 80" width="200" height="80">
  <!-- Yellow dot over the 'i' -->
  <circle cx="110" cy="20" r="8" fill="#db9936"/>
  
  <!-- Rivr text in turquoise -->
  <path d="M20,65 Q20,25 45,25 Q60,25 60,40 Q60,50 50,50 L45,50 L45,65 L35,65 L35,35 L45,35 Q50,35 50,40 Q50,45 45,45 L40,45 L50,65 L60,65" fill="#339999" stroke="none"/>
  
  <!-- i -->
  <rect x="105" y="35" width="10" height="30" fill="#339999"/>
  
  <!-- v -->
  <path d="M125,35 L135,65 L145,35 L155,35 L140,75 L130,75 L115,35 Z" fill="#339999"/>
  
  <!-- r -->
  <path d="M165,65 L165,35 L175,35 Q185,35 185,45 Q185,50 180,52 L185,65 L175,65 L172,52 L175,52 Q177,52 177,47 Q177,42 175,42 L175,65 Z" fill="#339999"/>
</svg>